<?xml version="1.0" encoding="UTF-8" standalone="no"?>
<svg
   xmlns:dc="http://purl.org/dc/elements/1.1/"
   xmlns:cc="http://creativecommons.org/ns#"
   xmlns:rdf="http://www.w3.org/1999/02/22-rdf-syntax-ns#"
   xmlns:svg="http://www.w3.org/2000/svg"
   xmlns="http://www.w3.org/2000/svg"
   xmlns:sodipodi="http://sodipodi.sourceforge.net/DTD/sodipodi-0.dtd"
   xmlns:inkscape="http://www.inkscape.org/namespaces/inkscape"
   version="1.1"
   id="svg46"
   width="225"
   height="81"
   viewBox="0 0 225 81"
   sodipodi:docname="logo.svg"
   inkscape:version="1.0.2-2 (e86c870879, 2021-01-15)">
  <metadata
     id="metadata52">
    <rdf:RDF>
      <cc:Work
         rdf:about="">
        <dc:format>image/svg+xml</dc:format>
        <dc:type
           rdf:resource="http://purl.org/dc/dcmitype/StillImage" />
        <dc:title></dc:title>
      </cc:Work>
    </rdf:RDF>
  </metadata>
  <defs
     id="defs50" />
  <sodipodi:namedview
     pagecolor="#ffffff"
     bordercolor="#666666"
     borderopacity="1"
     objecttolerance="10"
     gridtolerance="10"
     guidetolerance="10"
     inkscape:pageopacity="0"
     inkscape:pageshadow="2"
     inkscape:window-width="1920"
     inkscape:window-height="1057"
     id="namedview48"
     showgrid="false"
     inkscape:zoom="4.6755556"
     inkscape:cx="112.5"
     inkscape:cy="40.5"
     inkscape:window-x="1912"
     inkscape:window-y="-8"
     inkscape:window-maximized="1"
     inkscape:current-layer="g54" />
  <g
     inkscape:groupmode="layer"
     inkscape:label="Image"
     id="g54">
    <path
       style="fill:#000000"
       d="M 22.666667,66.333333 C 22.3,65.966667 22,64.825834 22,63.79815 22,62.23951 22.331683,62.107144 24,63 c 2.282722,1.221675 2.652791,0.08827 0.987287,-3.023754 -0.812837,-1.5188 -0.581535,-2.123031 1.171942,-3.061463 1.930638,-1.033246 2.505261,-0.776513 4.942015,2.208013 L 33.858605,62.5 70.679303,62.192157 c 21.248621,-0.177651 37.222467,-0.706297 37.770697,-1.25 1.20501,-1.195058 5.2552,-1.228167 5.98402,-0.04892 0.61723,0.998694 20.94282,1.904533 57.46228,2.560886 16.98132,0.305201 24.73175,0.79797 25.5,1.621279 0.83778,0.897832 0.47762,1.035805 -1.49488,0.572656 -1.42921,-0.335585 -20.03505,-0.637817 -41.3463,-0.671625 -28.59889,-0.04537 -39.12388,0.250707 -40.18385,1.130404 -1.08183,0.897831 -2.35328,0.918746 -5.1537,0.08477 C 105.96957,65.22435 45.429114,63.330161 34.75,63.861673 31.905506,64.003247 31,63.663031 31,62.452729 31,60.63668 28.673699,58 27.071429,58 c -1.829075,0 -1.176498,2.873401 0.905653,3.987735 1.969442,1.054013 1.969442,1.065741 0,3.035183 -2.005281,2.005281 -4.098917,2.521914 -5.310415,1.310415 z M 133.00139,56.728561 c -7.7e-4,-0.424291 1.10389,-1.275039 2.45479,-1.89055 l 2.45619,-1.119112 -4.20619,-4.412041 c -2.3134,-2.426622 -4.90828,-5.768434 -5.7664,-7.426249 l -1.56023,-3.014209 -6.15505,7.441089 c -3.38529,4.092599 -7.01746,7.666612 -8.07151,7.942251 -1.36273,0.356362 -2.74517,-0.576405 -4.78472,-3.228371 -4.3033,-5.595457 -10.264049,-12.025411 -11.115667,-11.990646 -0.413932,0.0169 -3.319319,4.066898 -6.456416,9 L 84.092375,57 H 78.546187 C 75.495784,57 73,56.55 73,56 c 0,-0.55 1.4625,-1.006891 3.25,-1.015313 1.7875,-0.0084 3.73793,-0.345922 4.33429,-0.75 0.596359,-0.404078 3.825622,-4.830495 7.17614,-9.836482 l 6.09185,-9.101794 -3.971503,-6.631426 -3.971502,-6.631426 -4.329995,5.316066 c -6.003097,7.370183 -6.711832,8.969247 -5.986306,13.50644 0.4565,2.85479 1.297622,4.228688 3.088398,5.04462 2.330587,1.061886 2.987947,4.343402 0.818628,4.086559 -0.55,-0.06512 -0.875604,-0.729788 -0.723565,-1.477043 0.493198,-2.424007 -3.789418,-2.936678 -5.394066,-0.645722 -0.791919,1.130624 -3.004102,2.349134 -4.915961,2.707801 -1.91186,0.358667 -5.270029,1.951631 -7.462599,3.539921 C 56.939926,57.056063 53.609603,57.795376 52.5,56 c -0.339919,-0.55 -1.968034,-1 -3.618034,-1 -1.950475,0 -2.759077,-0.389822 -2.311337,-1.11428 0.408669,-0.66124 2.237287,-0.906566 4.4976,-0.603394 2.841357,0.381106 4.216966,0.06002 5.41517,-1.263982 1.490686,-1.64719 1.3872,-1.993899 -1.438583,-4.819682 -4.013739,-4.013739 -4.273449,-10.060938 -0.590271,-13.744117 1.35,-1.35 3.15,-2.454545 4,-2.454545 C 59.505051,31 60,30.039216 60,28 60,25.06185 62.939469,21 65.065741,21 67.489178,21 70,23.21905 70,25.36087 70,27.734202 66.264078,32 64.185549,32 c -1.644761,0 -1.427452,3.095717 0.385739,5.495129 1.293329,1.711473 1.642065,1.78256 2.452884,0.5 0.519861,-0.822321 0.952093,-1.832629 0.960515,-2.245129 0.0084,-0.4125 0.834162,-0.75 1.834978,-0.75 2.193297,0 4.316934,-2.349744 10.167453,-11.25 4.490593,-6.831432 7.443845,-8.529277 8.697062,-5 0.903726,2.545052 6.691285,12.25 7.305303,12.25 0.287222,0 1.554429,-2.25 2.816016,-5 1.261591,-2.75 2.715411,-5 3.230731,-5 0.51531,0 1.63189,1.663278 2.48129,3.696173 0.8494,2.032896 2.6952,5.204998 4.10177,7.049117 3.14124,4.118367 4.08461,3.534206 7.85294,-4.86275 l 2.73232,-6.088437 3.44344,4.852949 c 1.89389,2.669121 3.78114,4.972372 4.19389,5.118335 0.41274,0.145963 2.30467,-2.888935 4.20428,-6.744218 4.29507,-8.716888 6.46219,-9.242193 10.40097,-2.521169 2.66342,4.544783 5.54972,5.973231 5.55661,2.75 0.002,-1.164851 0.66631,-0.663294 1.9853,1.5 2.32585,3.814666 4.01096,4.200754 4.01096,0.91898 0,-1.454363 -0.92737,-2.827336 -2.46587,-3.650714 -1.35623,-0.725832 -2.22967,-1.701873 -1.94098,-2.16898 0.81691,-1.321802 4.41235,-0.99854 4.96689,0.446568 0.3166,0.825045 1.72288,1.152771 3.87064,0.902032 5.97297,-0.69731 10.02104,6.207539 5.99789,10.230685 -2.24996,2.249966 -3.57097,2.004983 -10.89415,-2.02034 C 148.94049,28.432757 146,27.251078 146,27.782278 c 0,3.268673 11.16463,18.358219 12.56245,16.978765 0.41184,-0.406426 1.05296,-2.431426 1.42472,-4.5 L 160.66309,36.5 l 1.32897,2.75 c 0.73538,1.521699 2.15058,2.75 3.16846,2.75 1.01171,0 1.83948,0.45 1.83948,1 0,0.55 -1.2949,1 -2.87756,1 -4.81707,0 -5.74594,2.315998 -2.58891,6.455073 C 163.67377,53.261068 164.9299,54 167.55967,54 c 4.47408,0 5.16385,1.55213 1.28992,2.902589 -5.13141,1.788819 -6.55814,1.326987 -10.51158,-3.402589 -3.23183,-3.866303 -4.29022,-4.5 -7.51585,-4.5 -5.04373,0 -9.92395,-2.475289 -12.61061,-6.39621 -2.72654,-3.979124 -2.812,-8.106765 -0.25468,-12.300888 1.86762,-3.062993 1.87546,-3.288399 0.18685,-5.373744 -1.76235,-2.176409 -1.76295,-2.175959 -5.52194,4.134274 -4.30206,7.221897 -4.44936,6.487513 3.46152,17.257101 3.33119,4.534966 6.2035,7.319179 8.57147,8.308581 1.95877,0.818426 3.27071,1.778744 2.91541,2.134039 -0.92406,0.924058 -14.56713,0.891664 -14.56879,-0.03459 z M 72.22467,47.670716 C 73.255792,46.049735 73.179576,45.229018 71.925972,44.454248 70.800019,43.758371 66,47.66942 66,49.282722 c 0,1.246252 5.275568,-0.119964 6.22467,-1.612006 z m 50.19875,-14.818797 c -1.8354,-3.549287 -2.55326,-3.564903 -4.68521,-0.101919 -0.93116,1.5125 -2.54016,3.825525 -3.57556,5.140055 -2.13553,2.711251 -1.93281,2.830617 -8.97502,-5.284634 -3.13539,-3.613133 -3.38749,-3.717926 -4.7182,-1.961254 -0.773202,1.020708 -1.420135,2.386445 -1.437627,3.03497 -0.01749,0.648525 2.780697,4.415922 6.218197,8.371994 l 6.25,7.192857 6.1991,-6.770075 c 6.12226,-6.686143 6.18083,-6.805431 4.72432,-9.621994 z M 64.231392,44.343503 c 1.829527,-3.132583 1.825372,-3.171039 -0.753123,-6.970664 -3.446246,-5.078327 -3.190108,-4.943596 -5.472138,-2.878387 -2.467293,2.232869 -2.679879,8.098625 -0.410913,11.338029 2.067479,2.951739 4.340516,2.441731 6.636174,-1.488978 z m 85.975898,-1.627446 c -9.26061,-14.430577 -12.08874,-16.629821 -10.76858,-8.373973 0.80228,5.01716 4.76693,10.420459 8.93051,12.171113 4.47464,1.881445 4.90787,0.986459 1.83807,-3.79714 z M 74,41.30887 C 74,38.746851 73.93229,38.71034 72.588676,40.547842 71.153675,42.510323 71.356637,44 73.059017,44 73.576558,44 74,42.788992 74,41.30887 Z m 87.5,-13.199884 c 0,-3.761093 -2.179,-5.829879 -5.0002,-4.747284 -1.68989,0.648474 -1.68802,0.772837 0.0404,2.682776 1.38949,1.535368 1.53795,2.277322 0.63612,3.179151 -1.94074,1.940742 -1.34142,2.928207 1.57363,2.592793 2.39715,-0.275822 2.75,-0.751523 2.75,-3.707436 z M 68.332636,27.834438 C 69.707438,25.654925 68.456321,23 66.054438,23 c -2.396942,0 -5.342716,4.085186 -4.510191,6.254711 0.726753,1.893887 5.301633,0.936726 6.788389,-1.420273 z M 95,50.468615 C 95,48.41215 97.989988,47.365767 99.034942,49.056537 100.14209,50.847937 99.322518,52 96.940983,52 95.864652,52 95,51.317812 95,50.468615 Z m 28.4309,0.419582 c -0.75088,-1.214951 1.46395,-3.047283 3.0691,-2.539075 0.55,0.174136 1.1455,1.066821 1.32332,1.983744 0.37138,1.914875 -3.26782,2.374975 -4.39242,0.555331 z M 82.992467,35.490923 c -0.94408,-1.137547 -1.004504,-1.878886 -0.217303,-2.666087 1.517038,-1.517038 4.441964,-0.188294 4.048743,1.839274 -0.449061,2.315491 -2.269852,2.708412 -3.83144,0.826813 z M 164.5,36 c -0.7292,-1.179874 0.21667,-3 1.55902,-3 0.51754,0 0.94098,0.9 0.94098,2 0,2.109085 -1.45488,2.691037 -2.5,1 z M 109.7543,20.75 c -0.67884,-1.845946 0.21988,-3.75 1.77002,-3.75 1.81658,0 2.6193,1.462164 1.87194,3.409758 -0.72666,1.893646 -2.99285,2.10536 -3.64196,0.340242 z"
       id="path58" />
  </g>
</svg>
