<?xml version="1.0" encoding="UTF-8" standalone="no"?>
<svg
   xmlns:dc="http://purl.org/dc/elements/1.1/"
   xmlns:cc="http://creativecommons.org/ns#"
   xmlns:rdf="http://www.w3.org/1999/02/22-rdf-syntax-ns#"
   xmlns:svg="http://www.w3.org/2000/svg"
   xmlns="http://www.w3.org/2000/svg"
   xmlns:sodipodi="http://sodipodi.sourceforge.net/DTD/sodipodi-0.dtd"
   xmlns:inkscape="http://www.inkscape.org/namespaces/inkscape"
   version="1.1"
   id="svg30"
   width="366"
   height="102"
   viewBox="0 0 366 102"
   sodipodi:docname="signature.svg"
   inkscape:version="1.0.2-2 (e86c870879, 2021-01-15)">
  <metadata
     id="metadata36">
    <rdf:RDF>
      <cc:Work
         rdf:about="">
        <dc:format>image/svg+xml</dc:format>
        <dc:type
           rdf:resource="http://purl.org/dc/dcmitype/StillImage" />
        <dc:title></dc:title>
      </cc:Work>
    </rdf:RDF>
  </metadata>
  <defs
     id="defs34" />
  <sodipodi:namedview
     pagecolor="#ffffff"
     bordercolor="#666666"
     borderopacity="1"
     objecttolerance="10"
     gridtolerance="10"
     guidetolerance="10"
     inkscape:pageopacity="0"
     inkscape:pageshadow="2"
     inkscape:window-width="1920"
     inkscape:window-height="1057"
     id="namedview32"
     showgrid="false"
     inkscape:zoom="2.032449"
     inkscape:cx="205.91592"
     inkscape:cy="141.62253"
     inkscape:window-x="1912"
     inkscape:window-y="-8"
     inkscape:window-maximized="1"
     inkscape:current-layer="g38" />
  <g
     inkscape:groupmode="layer"
     inkscape:label="Image"
     id="g38">
    <path
       style="fill:#000000"
       d="m 337.77329,81.553207 c -3.75376,-3.526363 -6.59864,-5.250764 -10.09417,-6.118491 -3.23535,-0.803135 -5.0314,-1.827218 -5.35669,-3.054303 -0.59203,-2.233263 -1.522,-2.272657 -7.84215,-0.332199 -7.2074,2.21287 -9.76833,2.052085 -9.09183,-0.57082 0.61284,-2.375984 1.01906,-2.412605 -11.81556,1.065168 -7.19718,1.950207 -8.38153,1.640626 -6.59536,-1.723969 0.88487,-1.666803 0.65387,-2.018338 -1.60485,-2.442271 -1.56958,-0.294589 -3.99196,0.270966 -5.97934,1.395992 -1.83745,1.040163 -5.38941,2.414357 -7.89322,3.053765 -5.4269,1.385886 -7.26778,0.344257 -5.44839,-3.082876 0.64146,-1.208312 1.01688,-2.331939 0.83426,-2.496949 -0.18261,-0.165011 -2.51239,0.411343 -5.17728,1.280785 -3.60229,1.175274 -5.29228,1.303708 -6.58784,0.500654 -1.06455,-0.659867 -2.29023,-0.73088 -3.1501,-0.182509 -2.2648,1.444374 -6.90677,1.129244 -6.91213,-0.469247 -0.005,-1.354795 4.57781,-5.379918 10.04797,-8.826091 1.41465,-0.891225 4.86205,-2.308823 7.6609,-3.150219 2.79885,-0.841395 5.99558,-2.01902 7.10386,-2.616943 2.86424,-1.545273 8.3835,-9.602686 8.7039,-12.706562 0.37324,-3.6158 1.37742,-4.340682 1.38862,-1.002396 0.0115,3.428401 -1.36284,6.093005 -5.60788,10.87268 -1.83868,2.070264 -3.34097,4.390227 -3.3384,5.155474 0.003,0.765245 -1.34048,2.841056 -2.98454,4.612912 -3.28918,3.54484 -3.60685,4.1804 -1.73834,3.477899 0.68663,-0.258155 3.44659,-0.881786 6.13323,-1.385847 l 4.88481,-0.916473 -4.37443,4.010098 -4.37442,4.010099 3.96312,-0.697782 c 4.3355,-0.763344 9.61665,-3.190733 10.72644,-4.930207 0.50288,-0.78821 1.06139,-0.750127 1.95046,0.132989 0.68519,0.680608 3.63079,1.229468 6.54577,1.219689 5.39065,-0.01808 6.70948,1.059262 3.55977,2.907975 -2.82132,1.655966 0.001,1.231425 6.24052,-0.93865 6.01353,-2.091543 9.00292,-1.50297 7.84517,1.544612 -0.67422,1.774774 -1.17868,1.816424 7.4965,-0.618957 7.73422,-2.171227 9.59731,-1.960415 8.67443,0.981524 -0.47114,1.501877 0.1631,1.94521 3.59556,2.513281 3.10845,0.514451 5.65423,2.047269 10.01732,6.031452 3.21733,2.937944 6.99387,5.624803 8.39228,5.970802 3.72639,0.921985 3.10549,2.410394 -1.01127,2.424204 -2.89329,0.0097 -4.53853,-0.90746 -8.7867,-4.898293 z M 258.7884,62.854405 c 5.24381,-3.244201 5.52102,-4.690139 0.49317,-2.572337 -4.86366,2.048638 -8.23564,4.294017 -8.23166,5.481394 0.004,1.254134 2.56568,0.291226 7.73849,-2.909057 z m -62.72512,6.98704 c -0.002,-0.613156 3.47158,-4.750493 7.7192,-9.194081 l 7.72294,-8.07925 -4.99049,2.841624 c -13.8329,7.876547 -17.14987,9.525396 -19.21806,9.553213 -3.27521,0.04405 -2.79116,-2.03561 1.83574,-7.886927 l 4.09484,-5.17846 -7.84832,4.148428 c -4.31657,2.281636 -8.74563,4.949503 -9.84236,5.928595 -1.09672,0.979091 -3.56286,2.312041 -5.48031,2.962112 -2.92836,0.9928 -3.66993,0.932544 -4.6339,-0.376522 -0.88414,-1.200665 -2.12755,-1.3984 -5.41584,-0.861261 -3.38336,0.552667 -4.1013,0.425103 -3.4631,-0.615321 0.61512,-1.002782 0.23778,-1.146269 -1.59891,-0.608016 -5.87382,1.721356 -9.11374,1.921352 -9.9285,0.612873 -0.68208,-1.095398 -1.50339,-1.048437 -4.64905,0.265826 -4.96016,2.072362 -16.31825,2.323717 -16.32483,0.36127 -0.01,-2.955715 1.92104,-6.275763 3.96519,-6.817652 2.06923,-0.548538 2.08578,-0.484455 0.50336,1.948391 -0.89994,1.383571 -1.43703,2.713463 -1.19355,2.955316 0.7546,0.749553 5.86345,-1.582481 5.33301,-2.434353 -0.27528,-0.442079 1.06485,-0.853407 2.97805,-0.914062 2.87626,-0.09119 3.27787,0.13317 2.31954,1.295806 -1.49429,1.81284 -0.24209,1.783279 5.09609,-0.120304 3.24979,-1.158866 4.59282,-1.246765 5.65625,-0.370196 1.05561,0.870108 2.37581,0.851928 5.43162,-0.07479 2.99004,-0.90678 4.38835,-0.934731 5.39161,-0.107768 0.96818,0.798056 2.44497,0.81944 5.17741,0.07497 2.10257,-0.57286 4.83581,-1.198949 6.07386,-1.391308 1.23805,-0.192358 2.87345,-1.207027 3.63424,-2.254819 1.14135,-1.571924 1.65062,-1.684685 2.9122,-0.644803 2.23856,1.845197 16.12691,-5.457235 23.68734,-12.454699 3.25984,-3.017114 6.15588,-5.48642 6.43566,-5.487359 1.83405,-0.0062 -0.12848,3.72571 -3.59454,6.835267 -6.08251,5.456874 -15.23885,16.587861 -13.98511,17.001107 0.9445,0.311318 24.29505,-12.134335 35.46609,-18.903138 3.4253,-2.075481 3.72047,-2.121735 2.65757,-0.416454 -0.65764,1.05509 -3.4357,3.469179 -6.17345,5.364641 -5.27222,3.650165 -22.19022,20.049605 -21.44609,20.788747 0.24139,0.239779 2.3112,-0.320485 4.59959,-1.245031 6.01153,-2.428768 6.16704,-1.021932 0.22277,2.015364 -5.33914,2.728094 -9.12152,3.342633 -9.12776,1.483025 z M 25.060551,69.314296 c -0.0022,-0.668604 2.109271,-3.375703 4.692253,-6.015775 2.582983,-2.640072 4.077788,-4.798056 3.321789,-4.79552 -1.741228,0.0058 -9.390999,4.447407 -14.272546,8.286843 -6.072236,4.775937 -4.294062,1.463223 3.478281,-6.479992 4.904725,-5.012554 8.477633,-9.850295 11.124646,-15.062846 3.604804,-7.098649 5.947386,-9.69354 7.425521,-8.225291 0.326652,0.324469 -0.362847,1.34988 -1.532221,2.278692 -1.169373,0.928813 -3.130735,3.717131 -4.358582,6.196264 -1.227846,2.479133 -3.399424,6.05085 -4.825726,7.93715 l -2.593277,3.429636 2.977883,-0.758029 c 1.637836,-0.416917 3.415555,-0.837295 3.950487,-0.934176 1.249792,-0.226345 1.450145,2.31695 0.36048,4.575936 -1.102079,2.284718 -0.250163,2.20849 3.849804,-0.344476 2.522442,-1.570674 3.362188,-1.748145 3.365666,-0.711295 0.0025,0.759853 -0.526076,1.915835 -1.174722,2.568847 -2.080408,2.094414 -0.251227,2.285659 4.575355,0.478363 3.765019,-1.409798 4.85683,-1.503249 5.499754,-0.47074 0.639499,1.027012 1.554182,0.926542 4.510536,-0.495437 3.185973,-1.532425 3.834641,-1.5809 4.60476,-0.34412 0.580703,0.932588 2.163631,1.326108 4.4947,1.117394 1.97907,-0.177197 4.139749,0.109504 4.801509,0.637112 0.79284,0.632116 3.076984,0.351793 6.697255,-0.821927 5.766771,-1.869633 7.47766,-1.729259 6.614558,0.542709 -0.410956,1.081769 0.855477,1.316803 6.080453,1.128457 8.852024,-0.319092 9.209485,1.522763 0.587928,3.029362 -5.501632,0.961398 -7.145602,0.929289 -8.839753,-0.172657 -1.652752,-1.075015 -2.947895,-1.119248 -6.291157,-0.214854 -2.972621,0.80413 -4.714134,0.83039 -5.925395,0.08935 -0.943492,-0.577225 -3.454012,-0.836069 -5.578934,-0.575208 -2.325267,0.285457 -4.150348,0.01362 -4.583969,-0.68276 -0.522741,-0.839506 -2.045977,-0.583609 -5.550186,0.932406 -3.741671,1.618748 -5.005317,1.807451 -5.609203,0.837633 -0.612441,-0.983556 -1.808275,-0.87918 -5.58005,0.487044 -5.842549,2.116307 -6.299245,2.133256 -6.305617,0.234023 -0.007,-2.07549 -0.965949,-1.888256 -5.211428,1.017488 -4.158713,2.84636 -4.775103,3.014018 -4.780852,1.300395 z M 223.73407,68.113445 c -0.98358,-1.657721 1.44639,-5.346878 5.49841,-8.347634 2.3576,-1.745949 9.45332,-5.641234 15.76824,-8.656189 17.79319,-8.495069 18.00335,-8.627782 20.54647,-12.974476 3.10047,-5.29933 3.14917,-9.020637 0.12745,-9.737774 -2.97442,-0.70591 -9.44972,0.603153 -13.49093,2.727356 -1.78436,0.937927 -3.24556,1.326631 -3.24712,0.863787 -0.005,-1.406174 7.28157,-5.068604 12.40326,-6.234456 4.0148,-0.913893 5.23431,-0.831379 7.2686,0.491806 2.05735,1.338182 2.33756,2.094522 1.76961,4.776557 -0.37112,1.75264 -1.33669,4.491941 -2.14568,6.087337 -1.38007,2.721587 -1.35674,2.855204 0.3777,2.16367 3.68965,-1.471095 8.34483,-1.872309 8.3487,-0.719547 0.002,0.621959 -0.78369,1.137873 -1.74617,1.146475 -3.19314,0.02854 -11.67023,4.718632 -16.21998,8.973977 -6.13174,5.734969 -20.14868,15.030206 -26.88269,17.827073 -5.93652,2.465643 -7.6713,2.799522 -8.37587,1.612038 z m 11.38933,-5.064461 c 4.54549,-2.205828 20.87177,-13.558361 20.86867,-14.511103 -0.004,-1.178927 -23.25736,11.284531 -25.93071,13.898377 -2.282,2.231195 -2.31929,2.411734 -0.49201,2.381368 1.08744,-0.01807 3.58677,-0.81396 5.55405,-1.768642 z m -126.93436,0.06141 c -3.26606,-1.195754 -2.81689,-6.617396 1.21753,-14.696045 3.84617,-7.701678 5.75333,-9.710616 8.29236,-8.734905 1.57586,0.605582 1.51373,0.814777 -0.57975,1.952011 -2.4626,1.337749 -9.10803,12.817283 -9.09831,15.716702 0.008,2.354775 1.66108,2.737424 8.00627,1.853154 5.84663,-0.814792 8.01192,-0.08839 5.64132,1.89251 -1.98068,1.655065 -10.84475,2.981164 -13.47942,2.016573 z M 55.261289,53.928545 c 0.0037,-2.200025 0.205879,-2.98296 0.449243,-1.739858 0.243365,1.243104 0.240323,3.043124 -0.0068,4.000045 -0.247084,0.956923 -0.446201,-0.06016 -0.442482,-2.260187 z M 131.9971,50.220704 c -0.002,-0.614378 1.56746,-2.051205 3.48782,-3.19295 1.92036,-1.141744 3.24658,-2.469331 2.94716,-2.950195 -0.84258,-1.353157 -10.39685,-3.893228 -14.59113,-3.879157 -3.73345,0.01252 -6.65607,-1.892885 -3.19354,-2.082036 5.80863,-0.317313 11.32838,0.439062 15.06603,2.064507 3.5682,1.551756 4.25777,2.309576 4.26575,4.687948 0.008,2.248508 -0.66365,3.12796 -3.2358,4.239794 -1.78492,0.771549 -3.58219,1.588739 -3.99393,1.815978 -0.41174,0.227241 -0.7503,-0.08951 -0.75236,-0.703889 z M 51.22922,45.02674 c -2.410301,-2.293139 -2.87042,-3.575109 -1.285072,-3.580428 1.049376,-0.0035 4.566213,4.822158 3.926608,5.387954 -0.211375,0.186983 -1.400067,-0.626404 -2.641536,-1.807526 z"
       id="path44" />
  </g>
</svg>
